<svg xmlns="http://www.w3.org/2000/svg" viewBox="0 0 100 100">
  <defs>
    <clipPath id="c"><rect width="100" height="100"/></clipPath>
  </defs>
  <rect width="100" height="100" fill="#0f172a"/>
  <g clip-path="url(#c)">
    <!-- Track -->
    <path d="M 4,75 A 46 46 0 0 1 96,75" fill="none" stroke="#1e293b" stroke-width="15" stroke-linecap="butt"/>
    <!-- Calm 0-25 -->
    <path d="M 4,75 A 46 46 0 0 1 17.47,42.47" fill="none" stroke="#16a34a" stroke-width="11" stroke-linecap="butt"/>
    <!-- Elevated 26-40 -->
    <path d="M 17.47,42.47 A 46 46 0 0 1 35.79,31.25" fill="none" stroke="#4ade80" stroke-width="11" stroke-linecap="butt"/>
    <!-- Watch 41-55 -->
    <path d="M 35.79,31.25 A 46 46 0 0 1 57.18,29.55" fill="none" stroke="#facc15" stroke-width="11" stroke-linecap="butt"/>
    <!-- Warning 56-70 -->
    <path d="M 57.18,29.55 A 46 46 0 0 1 77.05,37.79" fill="none" stroke="#f97316" stroke-width="11" stroke-linecap="butt"/>
    <!-- Critical 71-85 -->
    <path d="M 77.05,37.79 A 46 46 0 0 1 91,54.12" fill="none" stroke="#ef4444" stroke-width="11" stroke-linecap="butt"/>
    <!-- Imminent 86-100 -->
    <path d="M 91,54.12 A 46 46 0 0 1 96,75" fill="none" stroke="#dc2626" stroke-width="11" stroke-linecap="butt"/>
    <!-- Needle at 73 (Critical) -->
    <line x1="50" y1="75" x2="75.1" y2="46.5" stroke="#ef4444" stroke-width="2.5" stroke-linecap="round"/>
    <!-- Hub -->
    <circle cx="50" cy="75" r="5" fill="#1e293b" stroke="#ef4444" stroke-width="1.5"/>
  </g>
</svg>
